<svg width="16" height="16" viewBox="0 0 16 16" fill="none" xmlns="http://www.w3.org/2000/svg">
<path d="M11.6671 12.6663H6.00043C5.13501 12.6661 4.28669 12.4253 3.55028 11.9707C2.81387 11.5161 2.21838 10.8656 1.83035 10.0921C1.44231 9.31853 1.27703 8.45231 1.35296 7.59022C1.42889 6.72814 1.74305 5.90415 2.26033 5.21033C2.77761 4.51651 3.47763 3.9802 4.28217 3.66133C5.0867 3.34246 5.96406 3.25359 6.8162 3.40465C7.66834 3.55571 8.46168 3.94075 9.10759 4.51675C9.75349 5.09274 10.2265 5.83699 10.4738 6.66634H11.6671C12.4627 6.66634 13.2258 6.98241 13.7884 7.54502C14.351 8.10763 14.6671 8.87069 14.6671 9.66634C14.6671 10.462 14.351 11.2251 13.7884 11.7877C13.2258 12.3503 12.4627 12.6663 11.6671 12.6663Z" stroke="white" stroke-width="1.33333" stroke-linecap="round" stroke-linejoin="round"/>
</svg>
