<svg width="16" height="16" viewBox="0 0 16 16" fill="none" xmlns="http://www.w3.org/2000/svg">
<g clip-path="url(#clip0_4042_1723)">
<path d="M9.00033 4.66667C9.18442 4.66667 9.33366 4.51743 9.33366 4.33333C9.33366 4.14924 9.18442 4 9.00033 4C8.81623 4 8.66699 4.14924 8.66699 4.33333C8.66699 4.51743 8.81623 4.66667 9.00033 4.66667Z" fill="white" stroke="white" stroke-width="1.33333" stroke-linecap="round" stroke-linejoin="round"/>
<path d="M11.6663 7.33366C11.8504 7.33366 11.9997 7.18442 11.9997 7.00033C11.9997 6.81623 11.8504 6.66699 11.6663 6.66699C11.4822 6.66699 11.333 6.81623 11.333 7.00033C11.333 7.18442 11.4822 7.33366 11.6663 7.33366Z" fill="white" stroke="white" stroke-width="1.33333" stroke-linecap="round" stroke-linejoin="round"/>
<path d="M5.66634 5.33366C5.85044 5.33366 5.99967 5.18442 5.99967 5.00033C5.99967 4.81623 5.85044 4.66699 5.66634 4.66699C5.48225 4.66699 5.33301 4.81623 5.33301 5.00033C5.33301 5.18442 5.48225 5.33366 5.66634 5.33366Z" fill="white" stroke="white" stroke-width="1.33333" stroke-linecap="round" stroke-linejoin="round"/>
<path d="M4.33333 8.66667C4.51743 8.66667 4.66667 8.51743 4.66667 8.33333C4.66667 8.14924 4.51743 8 4.33333 8C4.14924 8 4 8.14924 4 8.33333C4 8.51743 4.14924 8.66667 4.33333 8.66667Z" fill="white" stroke="white" stroke-width="1.33333" stroke-linecap="round" stroke-linejoin="round"/>
<path d="M7.99967 1.33301C4.33301 1.33301 1.33301 4.33301 1.33301 7.99967C1.33301 11.6663 4.33301 14.6663 7.99967 14.6663C8.61701 14.6663 9.09834 14.169 9.09834 13.541C9.09834 13.2497 8.97834 12.9843 8.80701 12.791C8.61367 12.5983 8.51501 12.3563 8.51501 12.041C8.51248 11.8943 8.53952 11.7485 8.59451 11.6125C8.64949 11.4764 8.73131 11.3528 8.83508 11.2491C8.93884 11.1453 9.06244 11.0635 9.19849 11.0085C9.33455 10.9535 9.48028 10.9265 9.62701 10.929H10.9577C12.9917 10.929 14.661 9.26034 14.661 7.22634C14.643 4.00767 11.6403 1.33301 7.99967 1.33301Z" stroke="white" stroke-width="1.33333" stroke-linecap="round" stroke-linejoin="round"/>
</g>
<defs>
<clipPath id="clip0_4042_1723">
<rect width="16" height="16" fill="white"/>
</clipPath>
</defs>
</svg>
