<svg width="48" height="33" viewBox="0 0 48 33" fill="none" xmlns="http://www.w3.org/2000/svg">
<path d="M28.8174 0.58252H28.2773V1.12128H28.8174V0.58252Z" fill="#0047FF"/>
<path d="M40.044 7.28076H39.5039V7.81952H40.044V7.28076Z" fill="#0047FF"/>
<path d="M46.0654 6.70363C46.1981 6.64047 46.3051 6.55025 46.3863 6.43038C46.4675 6.3118 46.5242 6.16745 46.5578 5.99989C46.5913 5.83104 46.608 5.64158 46.608 5.43148V1.66016H46.068V5.43148C46.068 5.58357 46.0602 5.71246 46.0448 5.81815C46.0293 5.92384 46.0022 6.00891 45.9636 6.07465C45.9249 6.13909 45.8733 6.18678 45.8089 6.21643C45.7432 6.24607 45.6594 6.26025 45.5563 6.26025C45.5073 6.26025 45.4635 6.25767 45.4287 6.2538C45.3926 6.24994 45.3436 6.23834 45.2805 6.22029L45.1387 6.73843C45.2869 6.77968 45.4338 6.79901 45.5769 6.79901C45.7689 6.79772 45.9326 6.76679 46.0654 6.70363Z" fill="#0047FF"/>
<path d="M44.208 0.70503H43.4669V0.580006C43.4669 0.511694 43.481 0.458849 43.5107 0.421471C43.5352 0.390537 43.5932 0.37507 43.6769 0.37507H44.0482V0H43.6679C43.4617 0 43.3006 0.0541339 43.1923 0.161113C43.0828 0.268092 43.0273 0.443382 43.0273 0.679251V1.11877H44.2093L44.208 0.70503Z" fill="#0047FF"/>
<path d="M38.9619 7.28076H38.4219V7.81952H38.9619V7.28076Z" fill="#0047FF"/>
<path d="M29.8975 0.58252H29.3574V1.12128H29.8975V0.58252Z" fill="#0047FF"/>
<path d="M41.7771 4.88886C41.982 5.0345 42.2192 5.14277 42.4885 5.21237C42.7579 5.28197 43.0441 5.31677 43.3457 5.31677H43.4887L43.6705 4.93655V5.47144C43.6705 5.75371 43.5893 5.95607 43.4282 6.07722C43.2657 6.19838 43.0389 6.25896 42.7463 6.25896C42.5801 6.25896 42.4305 6.24349 42.2978 6.21127C42.165 6.18034 42.0129 6.1262 41.8428 6.05016L41.674 6.5683C41.8802 6.64434 42.0645 6.70234 42.2243 6.73972C42.3841 6.77839 42.5453 6.79643 42.7064 6.79643C43.2322 6.79643 43.615 6.67141 43.8535 6.42265C44.0919 6.1726 44.2105 5.83749 44.2105 5.41602V1.66016H43.3469C43.0144 1.66016 42.7102 1.70785 42.4357 1.80194C42.1612 1.89603 41.9266 2.02492 41.7307 2.18861C41.5348 2.3523 41.3827 2.54821 41.2757 2.77506C41.1674 3.0019 41.1133 3.24808 41.1133 3.51231C41.1133 3.83067 41.1726 4.10391 41.2924 4.33076C41.4097 4.55632 41.5721 4.74321 41.7771 4.88886ZM41.7771 2.97999C41.8596 2.81888 41.9704 2.68097 42.107 2.56626C42.2436 2.45154 42.4009 2.3639 42.5762 2.30074C42.7463 2.24016 42.9229 2.20923 43.1059 2.20794V2.20665H43.9785L43.6705 2.36003V4.7793H43.124C42.9216 4.7793 42.7321 4.75094 42.5543 4.69423C42.3764 4.63881 42.2204 4.55632 42.0851 4.44805C41.9498 4.33978 41.8441 4.20832 41.768 4.05107C41.692 3.89382 41.6533 3.71467 41.6533 3.51231C41.652 3.31897 41.6933 3.14111 41.7771 2.97999Z" fill="#0047FF"/>
<path d="M28.425 6.72296H29.5463V6.31954C29.5567 6.33887 29.5683 6.3582 29.5799 6.37496C29.6611 6.49354 29.768 6.58505 29.9008 6.64821C30.0336 6.71136 30.196 6.7423 30.3893 6.7423H40.2301V1.66016H39.69V6.20482H39.1293H30.4086C30.3055 6.20482 30.2204 6.19065 30.156 6.161C30.0916 6.13136 30.0387 6.08496 30.0013 6.01922C29.964 5.95349 29.9369 5.86842 29.9201 5.76273C29.9047 5.65704 29.8969 5.52815 29.8969 5.37606V1.66016H28.4379C26.9453 1.66016 25.9297 2.84208 25.9297 4.19156V4.20574C25.931 5.55522 26.9325 6.72296 28.425 6.72296ZM26.5058 4.17738C26.5058 3.06506 27.3049 2.17056 28.425 2.17056H29.6881L29.3569 2.33554V5.37606C29.3569 5.58744 29.3736 5.77691 29.4071 5.94447C29.4265 6.04242 29.4548 6.13136 29.4909 6.21256H28.4379C27.3165 6.21256 26.5045 5.30388 26.5045 4.19156V4.17738H26.5058Z" fill="#0047FF"/>
<path d="M23.2314 5.38518L23.4673 6.00643L20.0388 1.65381H19.5039V6.71275H20.0607V2.90018L19.7436 2.16292L23.3332 6.71275H23.7895V1.65381H23.2314V5.38518Z" fill="#0047FF"/>
<path d="M30.9173 14.7941L34.0287 11.8283V9.79443H25.7127V12.1106H29.9764L31.5579 11.0949L27.6099 15.0583L28.0327 16.7777H29.1579C30.6698 16.7777 31.5669 17.3397 31.5669 18.3399V18.3747C31.5669 19.2872 30.8464 19.8659 29.8269 19.8659C28.5792 19.8659 27.7002 19.34 26.8559 18.3914L24.9922 20.1637C26.0465 21.41 27.5764 22.2865 29.7921 22.2865C32.5348 22.2865 34.222 20.5838 34.222 18.2677V18.2329C34.2233 15.9528 32.5877 15.0751 30.9173 14.7941Z" fill="#0047FF"/>
<path d="M15.9885 1.56738C14.4469 1.56738 13.3965 2.78797 13.3965 4.18385V4.19803C13.3965 5.59262 14.4315 6.79904 15.9743 6.79904C17.5158 6.79904 18.5663 5.57845 18.5663 4.18385V4.16968C18.565 2.77379 17.53 1.56738 15.9885 1.56738ZM17.9721 4.19803C17.9721 5.34644 17.1472 6.27188 15.9885 6.27188C14.8297 6.27188 13.9907 5.33227 13.9907 4.18385V4.16968C13.9907 3.02126 14.8169 2.09583 15.9743 2.09583C17.133 2.09583 17.9721 3.03544 17.9721 4.18385V4.19803Z" fill="#0047FF"/>
<path d="M41.4779 9.58301C37.6807 9.58301 34.9199 12.4431 34.9199 15.9347V15.9695C34.9199 19.4612 37.6447 22.2864 41.4418 22.2864C45.2389 22.2864 47.9997 19.4264 47.9997 15.9347V15.8999C48.001 12.4083 45.275 9.58301 41.4779 9.58301ZM45.1706 15.9695C45.1706 18.0756 43.6587 19.795 41.4779 19.795C39.2983 19.795 37.7503 18.0408 37.7503 15.9347V15.8999C37.7503 13.7939 39.2622 12.0745 41.4418 12.0745C43.6213 12.0745 45.1693 13.8287 45.1693 15.9347L45.1706 15.9695Z" fill="#0047FF"/>
<path d="M12.4102 1.65381H11.8379V6.71146H12.4102V1.65381Z" fill="#0047FF"/>
<path d="M2.6505 20.6726L3.17251 20.2705L5.86244 18.1979C8.04198 16.5133 9.09759 15.4964 9.09759 13.4431V13.4083C9.09759 11.1089 7.41042 9.61768 4.86097 9.61768C2.66339 9.61768 1.48533 10.5122 0.272477 12.162L2.17103 13.688C3.08486 12.5654 3.73576 12.0395 4.68568 12.0395C5.65235 12.0395 6.33805 12.6015 6.33805 13.6365C6.33805 14.6534 5.74 15.3211 4.21136 16.5842L0.115234 19.9353V22.0762H9.22261V19.742H4.52972L2.6505 20.6726Z" fill="#0047FF"/>
<path d="M2.68802 6.74884L4.86627 1.65381H4.25146L2.52949 5.80021L2.58362 6.35701L2.44184 6.01159L0.950583 2.40782L0.638671 1.65381H0.00195312L2.18148 6.74884H2.68802Z" fill="#0047FF"/>
<path d="M6.21485 1.65381H5.64258V6.71146H6.21485V1.65381Z" fill="#0047FF"/>
<path d="M9.24364 3.90819C8.12874 3.66974 7.86838 3.40294 7.86838 2.92604V2.91187C7.86838 2.45688 8.28856 2.09599 8.94719 2.09599C9.46791 2.09599 9.93965 2.26226 10.4101 2.64506L10.7426 2.20426C10.2284 1.79181 9.69991 1.58301 8.96137 1.58301C7.99856 1.58301 7.29611 2.16817 7.29611 2.96342V2.9776C7.29611 3.80894 7.83229 4.18401 8.99746 4.43793C10.0621 4.6622 10.3147 4.929 10.3147 5.39945V5.41363C10.3147 5.91243 9.86618 6.27332 9.18564 6.27332C8.48319 6.27332 7.97665 6.03488 7.4482 5.55798L7.09375 5.97688C7.70211 6.5195 8.36074 6.78631 9.16373 6.78631C10.1704 6.78631 10.8934 6.22306 10.8934 5.35562V5.34145C10.8934 4.56682 10.3727 4.15437 9.24364 3.90819Z" fill="#0047FF"/>
<path d="M16.5746 8.7749L17.1984 9.37166L16.6004 9.9942L15.9766 9.39744L16.5746 8.7749Z" fill="#0047FF"/>
<path d="M18.002 9.39744L18.6245 9.9942L19.2225 9.37166L18.6 8.7749L18.002 9.39744Z" fill="#0047FF"/>
<path d="M17.125 10.1809L17.6109 10.6462L18.0762 10.1616L17.5903 9.69629L17.125 10.1809Z" fill="#0047FF"/>
<path d="M18.9043 10.4467L19.3889 10.912L19.8542 10.4274L19.3696 9.96338L18.9043 10.4467Z" fill="#0047FF"/>
<path d="M16.3301 10.9208L16.816 11.3861L17.2813 10.9015L16.7967 10.4375L16.3301 10.9208Z" fill="#0047FF"/>
<path d="M17.959 10.9778L18.4436 11.4431L18.9089 10.9585L18.4243 10.4932L17.959 10.9778Z" fill="#0047FF"/>
<path d="M17.3223 11.5346L17.6625 11.862L17.9912 11.5217L17.6496 11.1943L17.3223 11.5346Z" fill="#0047FF"/>
<path d="M18.6113 11.7922L18.9516 12.1183L19.2803 11.7781L18.9387 11.4507L18.6113 11.7922Z" fill="#0047FF"/>
<path d="M22.4824 9.00615L21.4238 9.2002L21.6176 10.2575L22.6762 10.0635L22.4824 9.00615Z" fill="#0047FF"/>
<path d="M20.8924 9.48412L20.043 9.63965L20.1983 10.4878L21.0477 10.3323L20.8924 9.48412Z" fill="#0047FF"/>
<path d="M22.531 10.6709L21.6816 10.8267L21.8372 11.6748L22.6866 11.519L22.531 10.6709Z" fill="#0047FF"/>
<path d="M21.1754 10.825L20.5137 10.9463L20.6347 11.6068L21.2965 11.4856L21.1754 10.825Z" fill="#0047FF"/>
<path d="M22.4626 12.079L21.8008 12.2002L21.9218 12.8607L22.5836 12.7395L22.4626 12.079Z" fill="#0047FF"/>
<path d="M20.1833 11.0946L19.5215 11.2158L19.6425 11.8763L20.3043 11.7551L20.1833 11.0946Z" fill="#0047FF"/>
<path d="M21.3844 11.9593L20.7227 12.0806L20.8437 12.7411L21.5054 12.6198L21.3844 11.9593Z" fill="#0047FF"/>
<path d="M20.3442 12.0754L19.8789 12.1606L19.964 12.6246L20.4292 12.5394L20.3442 12.0754Z" fill="#0047FF"/>
<path d="M21.2368 13.0356L20.7715 13.1206L20.8563 13.5847L21.3216 13.4996L21.2368 13.0356Z" fill="#0047FF"/>
<path d="M24.5721 12.6621L24.1094 13.6327L25.0812 14.0941L25.5439 13.1248L24.5721 12.6621Z" fill="#0047FF"/>
<path d="M23.1915 12.2139L22.8203 12.9924L23.6001 13.3636L23.9713 12.5851L23.1915 12.2139Z" fill="#0047FF"/>
<path d="M23.8282 14.1313L23.457 14.9098L24.2381 15.2798L24.6093 14.5026L23.8282 14.1313Z" fill="#0047FF"/>
<path d="M22.8063 13.5479L22.5176 14.1549L23.1246 14.4423L23.4147 13.8366L22.8063 13.5479Z" fill="#0047FF"/>
<path d="M23.1162 15.3174L22.8262 15.9232L23.4332 16.2119L23.7233 15.6048L23.1162 15.3174Z" fill="#0047FF"/>
<path d="M21.8454 13.1865L21.5566 13.7936L22.1637 14.081L22.4537 13.4752L21.8454 13.1865Z" fill="#0047FF"/>
<path d="M22.3134 14.5889L22.0234 15.1959L22.6318 15.4834L22.9205 14.8776L22.3134 14.5889Z" fill="#0047FF"/>
<path d="M21.5826 14.1626L21.3789 14.5892L21.8068 14.7916L22.0092 14.365L21.5826 14.1626Z" fill="#0047FF"/>
<path d="M21.7457 15.4666L21.543 15.8926L21.9701 16.0958L22.1728 15.6699L21.7457 15.4666Z" fill="#0047FF"/>
<path d="M25.0958 17.3101L24.1523 17.8256L24.6705 18.7678L25.614 18.2522L25.0958 17.3101Z" fill="#0047FF"/>
<path d="M24.2383 16.1396L23.4805 16.5547L23.8968 17.31L24.6534 16.8949L24.2383 16.1396Z" fill="#0047FF"/>
<path d="M23.6316 18.0679L22.875 18.4829L23.29 19.2382L24.0479 18.8232L23.6316 18.0679Z" fill="#0047FF"/>
<path d="M23.147 16.9966L22.5566 17.3201L22.8802 17.9078L23.4705 17.5856L23.147 16.9966Z" fill="#0047FF"/>
<path d="M22.3586 18.6118L21.7695 18.9353L22.093 19.5231L22.6821 19.2008L22.3586 18.6118Z" fill="#0047FF"/>
<path d="M22.5773 16.1436L21.9883 16.4658L22.3105 17.0548L22.9008 16.7313L22.5773 16.1436Z" fill="#0047FF"/>
<path d="M22.1333 17.5537L21.543 17.8759L21.8665 18.465L22.4568 18.1415L22.1333 17.5537Z" fill="#0047FF"/>
<path d="M21.792 16.7803L21.377 17.0071L21.6051 17.4209L22.0188 17.194L21.792 16.7803Z" fill="#0047FF"/>
<path d="M21.1611 17.9297L20.7461 18.1565L20.9742 18.5703L21.3893 18.3434L21.1611 17.9297Z" fill="#0047FF"/>
<path d="M21.7314 21.2539L21.5996 22.3208L22.6678 22.4527L22.7996 21.3859L21.7314 21.2539Z" fill="#0047FF"/>
<path d="M21.9283 19.8279L21.8223 20.6836L22.6793 20.7898L22.7853 19.9341L21.9283 19.8279Z" fill="#0047FF"/>
<path d="M20.3053 21.0378L20.1992 21.8936L21.0562 21.9998L21.1623 21.1441L20.3053 21.0378Z" fill="#0047FF"/>
<path d="M20.7269 19.9068L20.6445 20.5732L21.3122 20.6558L21.3946 19.9894L20.7269 19.9068Z" fill="#0047FF"/>
<path d="M19.141 20.7564L19.0586 21.4229L19.7263 21.5054L19.8087 20.839L19.141 20.7564Z" fill="#0047FF"/>
<path d="M20.7681 18.8858L20.6855 19.5522L21.3532 19.635L21.4358 18.9686L20.7681 18.8858Z" fill="#0047FF"/>
<path d="M19.5826 19.7691L19.5 20.4355L20.1677 20.5183L20.2503 19.8519L19.5826 19.7691Z" fill="#0047FF"/>
<path d="M19.9564 18.9654L19.8984 19.4336L20.3679 19.4917L20.4258 19.0235L19.9564 18.9654Z" fill="#0047FF"/>
<path d="M18.7708 19.5275L18.7129 19.9956L19.1823 20.0536L19.2402 19.5855L18.7708 19.5275Z" fill="#0047FF"/>
<path d="M18.5437 23.3446L17.7549 22.6138L17.0215 23.4013L17.8103 24.1321L18.5437 23.3446Z" fill="#0047FF"/>
<path d="M18.3972 8.29282L17.6084 7.56201L16.875 8.34953L17.6651 9.08034L18.3972 8.29282Z" fill="#0047FF"/>
<path d="M19.3847 22.1651L18.7518 21.5786L18.1641 22.2102L18.7969 22.7966L19.3847 22.1651Z" fill="#0047FF"/>
<path d="M17.3625 22.1988L16.7284 21.6123L16.1406 22.2439L16.7748 22.8303L17.3625 22.1988Z" fill="#0047FF"/>
<path d="M18.2253 21.4009L17.7329 20.9434L17.2754 21.4357L17.7677 21.892L18.2253 21.4009Z" fill="#0047FF"/>
<path d="M16.4402 21.1638L15.9478 20.7075L15.4902 21.1986L15.9839 21.6562L16.4402 21.1638Z" fill="#0047FF"/>
<path d="M18.8581 20.593L18.3658 20.1367L17.9082 20.6278L18.4006 21.0854L18.8581 20.593Z" fill="#0047FF"/>
<path d="M17.3777 20.6174L16.8853 20.1611L16.4277 20.6522L16.9201 21.1098L17.3777 20.6174Z" fill="#0047FF"/>
<path d="M18.0049 20.0503L17.6582 19.728L17.3359 20.0747L17.6826 20.3957L18.0049 20.0503Z" fill="#0047FF"/>
<path d="M16.7139 19.8141L16.3671 19.4932L16.0449 19.8386L16.3916 20.1595L16.7139 19.8141Z" fill="#0047FF"/>
<path d="M13.733 21.3984L12.6777 21.6099L12.889 22.6638L13.9442 22.4524L13.733 21.3984Z" fill="#0047FF"/>
<path d="M15.1514 21.1405L14.3047 21.3101L14.474 22.1555L15.3208 21.9859L15.1514 21.1405Z" fill="#0047FF"/>
<path d="M13.4854 19.9903L12.6387 20.1602L12.8083 21.0056L13.655 20.8358L13.4854 19.9903Z" fill="#0047FF"/>
<path d="M14.6968 20.0295L14.0371 20.1616L14.169 20.82L14.8287 20.6879L14.6968 20.0295Z" fill="#0047FF"/>
<path d="M15.6851 19.7438L15.0254 19.876L15.1573 20.5344L15.817 20.4023L15.6851 19.7438Z" fill="#0047FF"/>
<path d="M14.4683 18.9006L13.8086 19.0327L13.9405 19.6911L14.6002 19.559L14.4683 18.9006Z" fill="#0047FF"/>
<path d="M15.3428 19.0044L14.8789 19.0972L14.9715 19.5598L15.4353 19.4669L15.3428 19.0044Z" fill="#0047FF"/>
<path d="M14.4326 18.0583L13.9688 18.1514L14.0615 18.6139L14.5253 18.5209L14.4326 18.0583Z" fill="#0047FF"/>
<path d="M10.7374 19.0421L11.1846 18.0638L10.2038 17.6191L9.75781 18.5961L10.7374 19.0421Z" fill="#0047FF"/>
<path d="M12.1261 19.4677L12.4831 18.684L11.6982 18.3257L11.3398 19.1106L12.1261 19.4677Z" fill="#0047FF"/>
<path d="M11.4561 17.5614L11.8145 16.7765L11.0282 16.4194L10.6699 17.2044L11.4561 17.5614Z" fill="#0047FF"/>
<path d="M12.1575 17.2362L11.8789 17.8472L12.4911 18.1263L12.7697 17.5153L12.1575 17.2362Z" fill="#0047FF"/>
<path d="M13.3075 19.6559L13.5859 19.045L12.9737 18.7666L12.6953 19.3775L13.3075 19.6559Z" fill="#0047FF"/>
<path d="M11.8159 15.4774L11.5371 16.0884L12.1492 16.3677L12.428 15.7567L11.8159 15.4774Z" fill="#0047FF"/>
<path d="M13.1205 17.5853L12.8418 18.1963L13.4539 18.4756L13.7327 17.8646L13.1205 17.5853Z" fill="#0047FF"/>
<path d="M12.6286 16.1851L12.3496 16.7959L12.9616 17.0754L13.2405 16.4646L12.6286 16.1851Z" fill="#0047FF"/>
<path d="M13.7 17.4928L13.8972 17.0636L13.4667 16.8677L13.2695 17.2982L13.7 17.4928Z" fill="#0047FF"/>
<path d="M13.5184 16.1962L13.7143 15.7657L13.2838 15.5698L13.0879 16.0003L13.5184 16.1962Z" fill="#0047FF"/>
<path d="M10.1371 14.4049L11.0729 13.8726L10.5393 12.9395L9.60352 13.4718L10.1371 14.4049Z" fill="#0047FF"/>
<path d="M11.0119 15.5598L11.7633 15.1331L11.3341 14.3843L10.584 14.8109L11.0119 15.5598Z" fill="#0047FF"/>
<path d="M11.5881 13.6223L12.3382 13.1956L11.9103 12.4468L11.1602 12.8734L11.5881 13.6223Z" fill="#0047FF"/>
<path d="M12.0904 14.6847L12.6742 14.3521L12.3417 13.7695L11.7578 14.1021L12.0904 14.6847Z" fill="#0047FF"/>
<path d="M12.8514 13.058L13.4353 12.7255L13.1027 12.1416L12.5176 12.4741L12.8514 13.058Z" fill="#0047FF"/>
<path d="M12.6737 15.5289L13.2575 15.1964L12.925 14.6138L12.3398 14.9463L12.6737 15.5289Z" fill="#0047FF"/>
<path d="M13.0936 14.1122L13.6775 13.7797L13.3449 13.1958L12.7598 13.5296L13.0936 14.1122Z" fill="#0047FF"/>
<path d="M13.4494 14.879L13.8606 14.6457L13.626 14.2358L13.2148 14.4691L13.4494 14.879Z" fill="#0047FF"/>
<path d="M14.0608 13.7201L14.4719 13.4856L14.2373 13.0757L13.8262 13.309L14.0608 13.7201Z" fill="#0047FF"/>
<path d="M12.4815 9.22025L12.3672 10.2891L13.4373 10.4035L13.5516 9.33465L12.4815 9.22025Z" fill="#0047FF"/>
<path d="M12.4921 10.8809L12.4004 11.7383L13.259 11.8302L13.3508 10.9728L12.4921 10.8809Z" fill="#0047FF"/>
<path d="M14.0937 9.64459L14.002 10.502L14.8606 10.5938L14.9523 9.73648L14.0937 9.64459Z" fill="#0047FF"/>
<path d="M13.8567 10.9925L13.7852 11.6602L14.4541 11.7318L14.5256 11.0641L13.8567 10.9925Z" fill="#0047FF"/>
<path d="M15.4345 10.1213L15.3633 10.7891L16.0323 10.8604L16.1036 10.1927L15.4345 10.1213Z" fill="#0047FF"/>
<path d="M13.8371 12.0179L13.7656 12.6855L14.4346 12.7572L14.5061 12.0895L13.8371 12.0179Z" fill="#0047FF"/>
<path d="M15.009 11.1126L14.9375 11.7803L15.6065 11.8519L15.678 11.1842L15.009 11.1126Z" fill="#0047FF"/>
<path d="M14.8236 12.1408L14.7734 12.6099L15.2438 12.6602L15.294 12.1911L14.8236 12.1408Z" fill="#0047FF"/>
<path d="M16.0011 11.5612L15.9512 12.0303L16.4215 12.0803L16.4715 11.6112L16.0011 11.5612Z" fill="#0047FF"/>
<path d="M21.0325 16.5071C20.9526 16.462 20.807 16.3859 20.6059 16.3228C20.3159 16.23 19.9112 16.1604 19.4317 16.2364C19.2706 16.2622 19.1005 16.3047 18.9239 16.3679C18.9071 16.3743 18.8904 16.3795 18.8736 16.3859C18.7834 16.4194 18.6945 16.4607 18.6042 16.5058C18.5269 16.5444 18.4509 16.587 18.3748 16.6334C18.2008 16.7378 18.0294 16.8564 17.8631 16.9853C17.6737 15.8394 17.7665 14.7761 17.8103 14.2541C17.8103 14.2515 17.8141 14.2502 17.8167 14.2515C18.2227 14.5067 18.1093 15.2195 18.0229 15.4244C18.0217 15.4283 18.0268 15.4308 18.0307 15.4283C18.5359 14.8315 18.2898 14.1716 18.1853 14.0053C18.1828 14.0014 18.1879 13.9976 18.1918 14.0002C18.2653 14.0594 18.3246 14.1226 18.3748 14.187C18.5308 14.3868 18.5888 14.6021 18.6042 14.7928C18.612 14.8934 18.6094 14.9862 18.6042 15.0661C18.603 15.088 18.6017 15.1073 18.5991 15.1267C18.5991 15.1292 18.6017 15.1305 18.6042 15.1292C18.6055 15.1292 18.6068 15.1292 18.6068 15.1279C18.7434 14.8599 18.8092 14.4551 18.6042 14.062C18.5488 13.955 18.4741 13.8494 18.3748 13.7475C18.3465 13.7179 18.3155 13.6895 18.2833 13.6599C18.2807 13.6573 18.2833 13.6522 18.2872 13.6534C18.3181 13.6612 18.3465 13.6702 18.3748 13.6792C18.4612 13.7089 18.5372 13.7501 18.6042 13.8004C18.7576 13.9138 18.862 14.0685 18.9239 14.2309C18.9754 14.3649 18.9986 14.5028 18.9986 14.6253C18.9986 14.6304 19.0051 14.6304 19.0064 14.6266C19.1018 14.2773 19.0438 14.013 18.9239 13.821C18.8388 13.6831 18.7215 13.5825 18.6042 13.5117C18.5243 13.464 18.4444 13.4305 18.3748 13.4098C18.3336 13.3969 18.2975 13.3892 18.2653 13.3853C18.2601 13.3853 18.2614 13.3776 18.2665 13.3776C18.3039 13.3737 18.34 13.3725 18.3748 13.3712C18.4599 13.3699 18.5359 13.3776 18.6042 13.3892C18.7396 13.415 18.8453 13.4614 18.9239 13.5155C19.0528 13.6019 19.1172 13.7037 19.1391 13.745C19.1404 13.7488 19.1469 13.7462 19.1469 13.7424C19.1288 13.5581 19.0438 13.4137 18.9252 13.3106C18.8337 13.2307 18.7215 13.1753 18.6055 13.1417C18.5295 13.1211 18.4521 13.1095 18.3761 13.1082C18.273 13.1069 18.1737 13.1237 18.09 13.1598C18.0861 13.1611 18.0835 13.1572 18.0848 13.1533C18.1596 13.0464 18.2653 12.9819 18.3761 12.9471C18.4534 12.9239 18.5321 12.9149 18.6055 12.9201C18.6764 12.9239 18.7409 12.9394 18.7937 12.9639C18.7976 12.9652 18.8002 12.9613 18.7976 12.9574C18.7396 12.8917 18.6738 12.8401 18.6055 12.8015C18.5321 12.7602 18.4547 12.7357 18.3761 12.7267C18.1712 12.7035 17.9624 12.7912 17.8232 13.0013C17.8219 13.0038 17.818 13.0038 17.8167 13.0013C17.7897 12.9536 17.7639 12.9007 17.7407 12.8453C17.6853 12.7164 17.6401 12.5721 17.6157 12.4277C17.6144 12.4225 17.6092 12.4225 17.6092 12.4277C17.5847 12.5721 17.5383 12.7177 17.4829 12.8466C17.4584 12.902 17.4339 12.9536 17.4069 13C17.4056 13.0025 17.4017 13.0025 17.4004 13C17.1581 12.6326 16.7031 12.6404 16.426 12.9574C16.4234 12.96 16.426 12.9652 16.4299 12.9639C16.6142 12.8762 16.9635 12.902 17.1388 13.1533C17.1413 13.1572 17.1375 13.1611 17.1336 13.1598C16.8642 13.0464 16.4466 13.1198 16.2236 13.3853C16.1437 13.4794 16.0896 13.5993 16.0754 13.7424C16.0754 13.7462 16.0806 13.7488 16.0832 13.745C16.0999 13.7127 16.1437 13.6431 16.2236 13.5722C16.3538 13.4575 16.5807 13.3415 16.9557 13.3763C16.9609 13.3776 16.9609 13.3841 16.957 13.3841C16.765 13.4073 16.3693 13.5787 16.2236 13.9705C16.1592 14.1432 16.1424 14.3598 16.2146 14.6253C16.2159 14.6291 16.2224 14.6291 16.2224 14.624C16.2224 14.6175 16.2224 14.6124 16.2236 14.6059C16.2275 14.2502 16.4312 13.7733 16.9351 13.6522C16.939 13.6509 16.9416 13.656 16.939 13.6586C16.3757 14.1535 16.4312 14.7645 16.6155 15.1254C16.618 15.1292 16.6232 15.1279 16.6232 15.1241C16.5987 14.8508 16.5794 14.3649 17.0305 13.9976C17.0344 13.995 17.0395 13.9989 17.0369 14.0027C16.9325 14.1703 16.6864 14.8289 17.1916 15.4257C17.1942 15.4295 17.2006 15.427 17.1993 15.4218C17.1143 15.2182 17.0008 14.5041 17.4056 14.2489C17.4081 14.2476 17.412 14.2489 17.412 14.2515C17.4558 14.7735 17.5486 15.8368 17.3592 16.9827C17.0331 16.7326 16.6889 16.5135 16.3487 16.3846C16.3061 16.3692 16.2649 16.355 16.2249 16.3408C15.8731 16.2248 15.5508 16.1926 15.2698 16.2055C14.8187 16.2248 14.4733 16.3601 14.2838 16.4542C14.2452 16.4736 14.213 16.4916 14.1885 16.5058C14.1782 16.5122 14.1859 16.5264 14.1962 16.5225C14.2258 16.5135 14.2542 16.5045 14.2838 16.4968C14.6306 16.3988 14.9592 16.373 15.2698 16.4001C15.6088 16.4297 15.9272 16.5225 16.2249 16.6566C16.6425 16.8448 17.0202 17.1129 17.3617 17.3964C16.8797 17.8166 16.4724 18.2252 16.2249 18.3682C16.212 18.3747 16.2004 18.3824 16.1888 18.3889C16.1295 18.3077 16.0264 18.2613 15.9143 18.2858C15.8163 18.3077 15.7364 18.3863 15.7145 18.483C15.6952 18.5693 15.7171 18.6634 15.7661 18.7124C15.8975 18.8438 16.0496 18.8529 16.2249 18.7794C16.5588 18.6389 16.9738 18.1981 17.4829 17.7315C17.5254 17.6929 17.568 17.6529 17.6118 17.6142C17.6556 17.6529 17.6981 17.6916 17.7407 17.7302C17.9714 17.9416 18.1828 18.1478 18.3761 18.3231C18.456 18.3953 18.5321 18.4623 18.6055 18.5216C18.719 18.6144 18.8259 18.6905 18.9252 18.7433C19.1198 18.8464 19.2886 18.8593 19.433 18.7317C19.4407 18.7253 19.4485 18.7188 19.4562 18.7111C19.4897 18.6776 19.5284 18.568 19.5078 18.4817C19.4962 18.4314 19.4691 18.3863 19.4317 18.3515C19.3982 18.3193 19.3544 18.2948 19.308 18.2845C19.1958 18.26 19.0927 18.3064 19.0334 18.3876C18.9999 18.3708 18.9638 18.3476 18.9239 18.3206C18.8324 18.2574 18.7254 18.1685 18.6042 18.0628C18.5321 17.9996 18.456 17.93 18.3748 17.8565C18.2176 17.7135 18.0449 17.5562 17.8618 17.3951C18.0242 17.2598 18.1957 17.1283 18.3748 17.0072C18.4496 16.9569 18.5256 16.9079 18.6042 16.8615C18.7086 16.7996 18.8143 16.7429 18.9239 16.6901C19.0876 16.6115 19.2564 16.5457 19.4317 16.4955C19.7952 16.3911 20.1857 16.3563 20.6059 16.4233C20.7425 16.4452 20.8817 16.4774 21.0248 16.5212C21.0351 16.5277 21.0428 16.5135 21.0325 16.5071Z" fill="#0047FF"/>
<path d="M2.81707 28.2114H2.5V28.5285H2.81707V28.2114Z" fill="#0047FF"/>
<path d="M23.8483 27.8456V25.7524H23.539V27.5363H22.3725V25.7524H22.0632V27.5363H20.8349V25.7524H20.3489C20.1556 25.7524 19.9803 25.7782 19.8231 25.8311C19.6658 25.8839 19.5318 25.9574 19.4209 26.0502C19.3101 26.1443 19.225 26.2551 19.1644 26.384C19.1039 26.5129 19.0742 26.6508 19.0742 26.8003C19.0742 26.9833 19.109 27.1393 19.1786 27.2708C19.2482 27.4022 19.341 27.5092 19.457 27.5943C19.573 27.6793 19.7084 27.7425 19.863 27.7825C20.0177 27.8237 20.1801 27.8443 20.3502 27.8443L23.8483 27.8456ZM19.8952 27.4873C19.7934 27.4538 19.7045 27.4061 19.6284 27.3429C19.5524 27.2798 19.4931 27.2025 19.4493 27.1122C19.4055 27.0207 19.3836 26.9176 19.3836 26.8016C19.3836 26.6908 19.408 26.5902 19.4557 26.4987C19.5034 26.4072 19.5666 26.3299 19.6452 26.2641C19.7238 26.1984 19.8128 26.1481 19.9133 26.1133C20.0138 26.0785 20.1169 26.0618 20.2226 26.0618H20.5281V27.5376H20.2226C20.1066 27.5376 19.9971 27.5208 19.8952 27.4873Z" fill="#0047FF"/>
<path d="M17.5496 25.0796H17.2402V27.8456H17.5496V25.0796Z" fill="#0047FF"/>
<path d="M20.8347 25.0796H20.5176V25.3967H20.8347V25.0796Z" fill="#0047FF"/>
<path d="M23.8522 28.2075H23.5352V28.5246H23.8522V28.2075Z" fill="#0047FF"/>
<path d="M3.35809 28.2114H3.04102V28.5285H3.35809V28.2114Z" fill="#0047FF"/>
<path d="M16.0319 27.5373H15.5267C15.3462 27.5373 15.2044 27.5116 15.1013 27.46C14.9982 27.4085 14.917 27.3311 14.8577 27.2293C14.8758 27.1494 14.8848 27.0527 14.8848 26.9406V25.9456H14.5755V26.9896C14.5755 27.1674 14.5278 27.3092 14.4324 27.4162C14.337 27.5232 14.1927 27.576 13.9993 27.576C13.9091 27.576 13.8266 27.5618 13.7518 27.5335C13.6771 27.5051 13.6126 27.4665 13.5585 27.4175C13.5044 27.3685 13.4618 27.3118 13.4309 27.2461C13.4 27.1803 13.3832 27.1107 13.3806 27.036V25.9456H13.0713V27.0128C13.0713 27.1081 13.0571 27.1881 13.0288 27.2538C13.0004 27.3195 12.9618 27.3737 12.9128 27.4162C12.8638 27.4587 12.8084 27.4897 12.7465 27.509C12.6846 27.5283 12.6189 27.5373 12.5493 27.5373H11.9512V25.9456H11.6419V27.5373H10.0205L10.5605 26.2459C10.478 26.1737 10.3904 26.1067 10.2976 26.0435C10.2048 25.9804 10.1094 25.9249 10.0115 25.8772C9.9135 25.8296 9.81425 25.7922 9.71372 25.7651C9.61318 25.738 9.51394 25.7252 9.41598 25.7252C9.31545 25.7252 9.21491 25.7393 9.11438 25.7651C9.01384 25.7922 8.9146 25.8283 8.81535 25.8747C8.71611 25.9211 8.62073 25.9765 8.52921 26.0409C8.4377 26.1054 8.35264 26.1724 8.27272 26.2446L8.81664 27.5361H7.74685V25.7522H7.2532C7.06244 25.7522 6.88844 25.7793 6.73119 25.8334C6.57395 25.8876 6.43991 25.961 6.32777 26.0551C6.21564 26.1492 6.12928 26.2613 6.06741 26.3902C6.00554 26.5204 5.97461 26.6609 5.97461 26.813C5.97461 26.996 6.00812 27.152 6.07643 27.2809C6.14475 27.411 6.23755 27.518 6.35484 27.6005C6.47213 27.6843 6.60746 27.7462 6.76213 27.7848C6.9168 27.8248 7.08049 27.8441 7.2532 27.8441H7.4388V27.933C7.4388 28.0954 7.3924 28.2102 7.2996 28.2798C7.2068 28.3494 7.07662 28.3842 6.90906 28.3842C6.81368 28.3842 6.72862 28.3751 6.65257 28.3571C6.57653 28.339 6.49017 28.3081 6.39222 28.2643L6.29555 28.5607C6.41413 28.6046 6.51853 28.6368 6.61004 28.6587C6.70155 28.6806 6.79306 28.6922 6.88586 28.6922C7.18747 28.6922 7.40529 28.6213 7.54191 28.4782C7.67854 28.3352 7.74685 28.1431 7.74685 27.9021V27.8441H12.5467C12.6962 27.8441 12.829 27.8119 12.9463 27.7474C13.0636 27.683 13.1577 27.5966 13.2298 27.4897C13.3046 27.6134 13.4064 27.7101 13.5353 27.7784C13.6642 27.848 13.8176 27.8828 13.9954 27.8828C14.1811 27.8828 14.3383 27.8506 14.4685 27.7861C14.5987 27.7217 14.6979 27.6237 14.7675 27.4897C14.7933 27.5335 14.8242 27.576 14.8616 27.6186C14.899 27.6611 14.9467 27.6985 15.0059 27.732C15.0652 27.7655 15.1374 27.7926 15.2199 27.8132C15.2831 27.8286 15.3591 27.8364 15.4416 27.8402V27.8441H16.3335V25.0781H16.0242V27.5373H16.0319ZM7.44267 27.5373H7.12947C7.01347 27.5373 6.9052 27.5219 6.80338 27.4897C6.70155 27.4574 6.61262 27.411 6.53528 27.3492C6.45795 27.2873 6.39737 27.2113 6.35355 27.1223C6.30972 27.0321 6.28782 26.929 6.28782 26.8143C6.28782 26.7034 6.31101 26.6029 6.3587 26.5101C6.40639 26.4173 6.46955 26.3387 6.54817 26.2729C6.6268 26.2072 6.71573 26.1569 6.81626 26.1208C6.9168 26.0848 7.0212 26.0667 7.12947 26.0667H7.44267V27.5373ZM9.1466 27.5373L8.66455 26.3541C8.78313 26.2536 8.90429 26.1801 9.02931 26.135C9.15433 26.0886 9.28451 26.0654 9.42114 26.0654C9.56034 26.0654 9.69825 26.0925 9.83487 26.1479C9.9715 26.2033 10.0875 26.2716 10.1829 26.3541L9.70083 27.5373H9.1466Z" fill="#0047FF"/>
<path d="M1.76042 25.0796H1.44336V25.3967H1.76042V25.0796Z" fill="#0047FF"/>
<path d="M33.0085 25.0796H32.6914V25.3967H33.0085V25.0796Z" fill="#0047FF"/>
<path d="M30.2644 25.0796H29.9551V27.8456H30.2644V25.0796Z" fill="#0047FF"/>
<path d="M20.2936 25.0796H19.9766V25.3967H20.2936V25.0796Z" fill="#0047FF"/>
<path d="M5.48724 26.6326C5.48724 26.5115 5.47178 26.3993 5.43826 26.2936C5.40604 26.188 5.35706 26.099 5.29004 26.0243C5.20755 25.934 5.11604 25.867 5.01421 25.8219C4.91239 25.7768 4.78866 25.7549 4.64172 25.7549H4.41359V26.0629H4.68426C4.75901 26.0629 4.8299 26.0797 4.89693 26.1106C4.96395 26.1428 5.01937 26.1841 5.06319 26.2356C5.10702 26.2898 5.13666 26.3491 5.15342 26.4135C5.17017 26.478 5.17919 26.5553 5.17919 26.6442V27.5387H3.73047V27.8468H5.48724V26.6326Z" fill="#0047FF"/>
<path d="M46.6062 25.0796H46.2969V27.8456H46.6062V25.0796Z" fill="#0047FF"/>
<path d="M33.5495 25.0796H33.2324V25.3967H33.5495V25.0796Z" fill="#0047FF"/>
<path d="M45.3973 25.0796H45.088V27.5375H44.0259C44.0903 27.3957 44.1226 27.2449 44.1226 27.0825C44.1226 26.924 44.0929 26.7745 44.0362 26.6379C43.9782 26.5 43.8996 26.3814 43.7991 26.2821C43.6985 26.1816 43.5799 26.103 43.442 26.045C43.3041 25.987 43.1559 25.9586 42.9961 25.9586C42.8414 25.9586 42.697 25.9883 42.563 26.0476C42.4289 26.1068 42.3129 26.1868 42.2137 26.2886C42.1145 26.3904 42.0371 26.509 41.9804 26.6456C41.9237 26.7822 41.8953 26.9279 41.8953 27.0851C41.8953 27.1676 41.9044 27.2462 41.9211 27.3223C41.9379 27.3983 41.9598 27.4705 41.9881 27.5401H41.0305C41.0949 27.3983 41.1272 27.2475 41.1272 27.0851C41.1272 26.9266 41.0975 26.7771 41.0408 26.6405C40.9828 26.5025 40.9042 26.384 40.8036 26.2847C40.7031 26.1842 40.5845 26.1056 40.4466 26.0476C40.3087 25.9896 40.1605 25.9612 40.0007 25.9612C39.846 25.9612 39.7029 25.9908 39.5689 26.0501C39.4348 26.1094 39.3188 26.1893 39.2196 26.2912C39.1203 26.393 39.043 26.5116 38.9863 26.6482C38.9296 26.7848 38.9012 26.9305 38.9012 27.0877C38.9012 27.1702 38.9102 27.2488 38.927 27.3249C38.9438 27.4009 38.9657 27.4731 38.994 27.5427H38.0132V25.0847H37.7038V27.5427H36.7191V27.0709C36.7191 26.9524 36.7036 26.8402 36.6727 26.7333C36.6418 26.6263 36.5928 26.5361 36.5258 26.4613C36.4459 26.3711 36.3556 26.304 36.2551 26.2602C36.1546 26.2164 36.027 26.1945 35.8723 26.1945H34.5048L35.0861 25.0835H34.7497L34.1568 26.1906C34.1671 26.2576 34.1826 26.3156 34.2058 26.3646C34.2277 26.4136 34.2573 26.46 34.296 26.5038H35.871C35.969 26.5038 36.0528 26.518 36.1236 26.5489C36.1945 26.5786 36.2512 26.6185 36.2951 26.6701C36.3389 26.7217 36.3685 26.7809 36.384 26.848C36.3995 26.915 36.4072 26.9897 36.4072 27.0709V27.5427H33.5497V25.7588H33.0625C32.8692 25.7588 32.6939 25.7846 32.5379 25.8375C32.3807 25.8903 32.2466 25.9638 32.1358 26.0566C32.0249 26.1507 31.9399 26.2615 31.8793 26.3904C31.8187 26.5193 31.7891 26.6572 31.7891 26.8067C31.7891 26.9897 31.8239 27.1457 31.8935 27.2772C31.9631 27.4086 32.0559 27.5156 32.1719 27.6007C32.2879 27.6858 32.4232 27.7489 32.5779 27.7889C32.7325 27.8301 32.8949 27.8507 33.0638 27.8507H39.1925C39.2931 27.959 39.4116 28.0441 39.5495 28.1072C39.6875 28.1704 39.837 28.2013 39.9994 28.2013C40.1643 28.2013 40.3177 28.1704 40.4608 28.1085C40.6039 28.0466 40.7263 27.9603 40.8294 27.8507H42.1892C42.2897 27.959 42.4083 28.0441 42.5462 28.1072C42.6842 28.1704 42.8337 28.2013 42.9961 28.2013C43.161 28.2013 43.3144 28.1704 43.4575 28.1085C43.6006 28.0466 43.723 27.9603 43.8261 27.8507H45.3973V25.0796ZM33.2404 27.5375H32.9349C32.8189 27.5375 32.7106 27.5208 32.6088 27.4873C32.507 27.4537 32.418 27.4061 32.342 27.3429C32.266 27.2797 32.2067 27.2024 32.1628 27.1122C32.119 27.0207 32.0971 26.9176 32.0971 26.8016C32.0971 26.6907 32.1203 26.5902 32.168 26.4987C32.2157 26.4072 32.2788 26.3298 32.3575 26.2641C32.4361 26.1984 32.525 26.1481 32.6256 26.1133C32.7261 26.0785 32.8292 26.0617 32.9349 26.0617H33.2404V27.5375ZM40.7534 27.4009C40.7108 27.5001 40.6528 27.5852 40.5794 27.6574C40.5059 27.7296 40.4196 27.785 40.3203 27.825C40.2211 27.8649 40.1141 27.8842 39.9981 27.8842C39.8847 27.8842 39.7803 27.8623 39.6836 27.8211C39.5869 27.7786 39.5031 27.7205 39.4323 27.6471C39.3614 27.5736 39.3059 27.4885 39.266 27.3906C39.226 27.2926 39.2067 27.1882 39.2067 27.0787C39.2067 26.9678 39.2273 26.8634 39.266 26.7642C39.3059 26.6649 39.3614 26.5799 39.431 26.5064C39.5006 26.4329 39.5831 26.3749 39.6797 26.3311C39.7764 26.2873 39.8821 26.2654 39.9981 26.2654C40.1167 26.2654 40.2249 26.286 40.3242 26.3272C40.4234 26.3685 40.5098 26.4252 40.5832 26.4974C40.6567 26.5696 40.7134 26.6546 40.7547 26.7539C40.7959 26.8531 40.8165 26.9614 40.8165 27.08C40.8178 27.1947 40.7959 27.3017 40.7534 27.4009ZM43.7501 27.4009C43.7075 27.5001 43.6495 27.5852 43.5761 27.6574C43.5026 27.7296 43.4162 27.785 43.317 27.825C43.2178 27.8649 43.1108 27.8842 42.9948 27.8842C42.8814 27.8842 42.777 27.8623 42.6803 27.8211C42.5836 27.7786 42.4998 27.7205 42.4289 27.6471C42.3581 27.5736 42.3026 27.4885 42.2627 27.3906C42.2227 27.2926 42.2021 27.1882 42.2021 27.0787C42.2021 26.9678 42.2227 26.8634 42.2627 26.7642C42.3026 26.6649 42.3568 26.5799 42.4264 26.5064C42.496 26.4329 42.5785 26.3749 42.6751 26.3311C42.7718 26.2873 42.8775 26.2654 42.9935 26.2654C43.1121 26.2654 43.2203 26.286 43.3196 26.3272C43.4188 26.3685 43.5052 26.4252 43.5786 26.4974C43.6521 26.5696 43.7088 26.6546 43.7501 26.7539C43.7913 26.8531 43.8119 26.9614 43.8119 27.08C43.8145 27.1947 43.7926 27.3017 43.7501 27.4009Z" fill="#0047FF"/>
<path d="M0.788807 27.7838C0.943476 27.825 1.10588 27.8456 1.27473 27.8456H3.2983V25.7524H2.98896V27.5363H1.76064V25.7524H1.27344C1.0801 25.7524 0.906098 25.7782 0.748852 25.8311C0.591606 25.8839 0.457561 25.9574 0.346715 26.0502C0.235869 26.1443 0.150803 26.2551 0.0902247 26.384C0.0296463 26.5129 0 26.6508 0 26.8003C0 26.9833 0.0348 27.1393 0.104401 27.2708C0.174001 27.4022 0.266799 27.5092 0.3828 27.5943C0.498801 27.6806 0.634139 27.7438 0.788807 27.7838ZM0.309332 26.8016C0.309332 26.6908 0.333821 26.5902 0.38151 26.4987C0.429199 26.4072 0.49236 26.3299 0.570983 26.2641C0.649606 26.1984 0.738542 26.1481 0.839076 26.1133C0.939611 26.0785 1.04272 26.0618 1.14841 26.0618H1.45388V27.5376H1.14841C1.03241 27.5376 0.924143 27.5208 0.82232 27.4873C0.720497 27.4538 0.631562 27.4061 0.555516 27.3429C0.479471 27.2798 0.42018 27.2025 0.376357 27.1122C0.331246 27.0207 0.309332 26.9176 0.309332 26.8016Z" fill="#0047FF"/>
<path d="M22.7233 28.2114H22.4062V28.5285H22.7233V28.2114Z" fill="#0047FF"/>
<path d="M22.1823 28.2114H21.8652V28.5285H22.1823V28.2114Z" fill="#0047FF"/>
<path d="M25.0522 28.2374C25.0715 28.1407 25.0818 28.0325 25.0818 27.9113V27.8456H29.0555V25.0796H28.7462V27.5375H27.4328L27.9729 26.246C27.8904 26.1739 27.8027 26.1068 27.7099 26.0437C27.6171 25.9805 27.5217 25.9251 27.4238 25.8774C27.3258 25.8297 27.2266 25.7924 27.126 25.7653C27.0255 25.7382 26.9263 25.7253 26.8283 25.7253C26.7278 25.7253 26.6272 25.7395 26.5267 25.7653C26.4262 25.7924 26.3269 25.8284 26.2277 25.8748C26.1284 25.9212 26.0331 25.9767 25.9415 26.0411C25.85 26.1056 25.765 26.1726 25.6851 26.2448L26.229 27.5362H25.078V25.7524H24.7686V27.9113C24.7686 27.999 24.7648 28.0724 24.7558 28.133C24.7467 28.1936 24.7313 28.2426 24.7094 28.2799C24.6874 28.3173 24.6578 28.3444 24.6204 28.3611C24.583 28.3779 24.5354 28.3869 24.4761 28.3869C24.4477 28.3869 24.4232 28.3856 24.4026 28.383C24.382 28.3805 24.3536 28.374 24.3175 28.3637L24.2363 28.6602C24.3214 28.6834 24.4052 28.695 24.4877 28.695C24.5985 28.695 24.6913 28.6769 24.7674 28.6408C24.8434 28.6047 24.904 28.5532 24.9504 28.4849C25.0006 28.4166 25.0329 28.3341 25.0522 28.2374ZM26.0743 26.3543C26.1929 26.2538 26.314 26.1803 26.4391 26.1352C26.5641 26.0888 26.6943 26.0656 26.8309 26.0656C26.9701 26.0656 27.108 26.0927 27.2446 26.1481C27.3812 26.2035 27.4972 26.2718 27.5926 26.3543L27.1106 27.5375H26.5589L26.0743 26.3543Z" fill="#0047FF"/>
<path d="M1.21941 25.0796H0.902344V25.3967H1.21941V25.0796Z" fill="#0047FF"/>
<path d="M2.21675 29.8716H1.74115L0.690695 30.98V29.8716H0.302734V32.0743H0.690695V31.4363L1.03483 31.0831L1.78755 32.0743H2.258L1.29905 30.8189L2.21675 29.8716Z" fill="#0047FF"/>
<path d="M2.99929 29.8716H2.61133V32.0743H2.99929V29.8716Z" fill="#0047FF"/>
<path d="M5.13723 31.3951L3.9553 29.8716H3.5957V32.0743H3.97722V30.507L5.19394 32.0743H5.51874V29.8716H5.13723V31.3951Z" fill="#0047FF"/>
<path d="M7.12521 31.1809H7.68975V31.5933C7.55441 31.6939 7.36495 31.7596 7.15744 31.7596C6.70632 31.7596 6.40729 31.4258 6.40729 30.9734V30.9669C6.40729 30.5455 6.71534 30.1897 7.12263 30.1897C7.40361 30.1897 7.56988 30.2812 7.74002 30.4256L7.9862 30.133C7.75935 29.941 7.52219 29.834 7.1381 29.834C6.47303 29.834 6 30.356 6 30.9734V30.9798C6 31.6217 6.45369 32.1128 7.14455 32.1128C7.53508 32.1128 7.84828 31.9555 8.06482 31.7699V30.8445H7.12521V31.1809Z" fill="#0047FF"/>
<path d="M9.42193 29.8716H8.59961V32.0743H9.42193C10.1154 32.0743 10.5948 31.5936 10.5948 30.9723V30.9659C10.5948 30.3472 10.1154 29.8716 9.42193 29.8716ZM10.1888 30.98C10.1888 31.4105 9.88594 31.7224 9.42322 31.7224H8.98886V30.2247H9.42322C9.88722 30.2247 10.1888 30.5431 10.1888 30.9736V30.98Z" fill="#0047FF"/>
<path d="M12.1151 29.834C11.4372 29.834 10.959 30.3534 10.959 30.9734V30.9798C10.959 31.5998 11.432 32.1128 12.11 32.1128C12.7879 32.1128 13.2674 31.5933 13.2674 30.9734V30.9669C13.2648 30.347 12.7918 29.834 12.1151 29.834ZM12.8588 30.9798C12.8588 31.4077 12.5534 31.757 12.1151 31.757C11.6769 31.757 11.365 31.4013 11.365 30.9734V30.9669C11.365 30.539 11.6705 30.1897 12.1087 30.1897C12.5469 30.1897 12.8588 30.5455 12.8588 30.9734V30.9798Z" fill="#0047FF"/>
<path d="M14.832 30.913L14.1605 29.8716H13.748V32.0743H14.1296V30.5019L14.8204 31.533H14.832L15.5293 30.4954V32.0743H15.9173V29.8716H15.5035L14.832 30.913Z" fill="#0047FF"/>
<path d="M18.4901 29.834C17.8122 29.834 17.334 30.3534 17.334 30.9734V30.9798C17.334 31.5998 17.807 32.1128 18.485 32.1128C19.1629 32.1128 19.6424 31.5933 19.6424 30.9734V30.9669C19.6411 30.347 19.1681 29.834 18.4901 29.834ZM19.2338 30.9798C19.2338 31.4077 18.9284 31.757 18.4901 31.757C18.0519 31.757 17.74 31.4013 17.74 30.9734V30.9669C17.74 30.539 18.0455 30.1897 18.4837 30.1897C18.9219 30.1897 19.2338 30.5455 19.2338 30.9734V30.9798Z" fill="#0047FF"/>
<path d="M20.123 32.0743H20.511V31.1772H21.6233V30.8254H20.511V30.2247H21.7651V29.8716H20.123V32.0743Z" fill="#0047FF"/>
<path d="M23.9885 30.7972C23.5657 30.6966 23.4652 30.6206 23.4652 30.4518V30.4453C23.4652 30.301 23.5979 30.1837 23.8248 30.1837C24.0271 30.1837 24.2256 30.2623 24.4241 30.4105L24.6316 30.1179C24.4074 29.9388 24.1522 29.8408 23.8312 29.8408C23.393 29.8408 23.0772 30.1025 23.0772 30.4788V30.4853C23.0772 30.8913 23.3427 31.0292 23.8119 31.1426C24.2218 31.2367 24.3094 31.3218 24.3094 31.479V31.4867C24.3094 31.6543 24.1586 31.7639 23.9189 31.7639C23.6443 31.7639 23.433 31.6595 23.2216 31.4777L22.9883 31.7548C23.2538 31.9907 23.5709 32.1067 23.9086 32.1067C24.3726 32.1067 24.6961 31.8618 24.6961 31.4494V31.4429C24.6974 31.0769 24.4551 30.9106 23.9885 30.7972Z" fill="#0047FF"/>
<path d="M25.8846 29.856L24.9141 32.0742H25.311L25.5379 31.5418H26.5819L26.8062 32.0742H27.216L26.2455 29.856H25.8846ZM25.6797 31.2003L26.0586 30.3187L26.4401 31.2003H25.6797Z" fill="#0047FF"/>
<path d="M28.943 31.1399C28.943 31.5459 28.7316 31.7534 28.3875 31.7534C28.0407 31.7534 27.8294 31.533 27.8294 31.1244V29.8716H27.4414V31.1399C27.4414 31.7779 27.8075 32.1091 28.381 32.1091C28.9584 32.1091 29.3297 31.7792 29.3297 31.1218V29.8729H28.9417V31.1399H28.943Z" fill="#0047FF"/>
<path d="M30.7227 29.8716H29.9004V32.0743H30.7227C31.4161 32.0743 31.8956 31.5936 31.8956 30.9723V30.9659C31.8956 30.3472 31.4161 29.8716 30.7227 29.8716ZM31.4883 30.98C31.4883 31.4105 31.1854 31.7224 30.7227 31.7224H30.2884V30.2247H30.7227C31.1867 30.2247 31.4883 30.5431 31.4883 30.9736V30.98Z" fill="#0047FF"/>
<path d="M32.7747 29.8716H32.3867V32.0743H32.7747V29.8716Z" fill="#0047FF"/>
<path d="M35.0897 29.856L34.1191 32.0742H34.5161L34.743 31.5418H35.787L36.0113 32.0742H36.4211L35.4506 29.856H35.0897ZM34.8847 31.2003L35.2637 30.3187L35.6452 31.2003H34.8847Z" fill="#0047FF"/>
<path d="M38.5903 30.574V30.5676C38.5903 30.3755 38.5246 30.2119 38.4073 30.092C38.2655 29.9541 38.0477 29.8716 37.7705 29.8716H36.7871V32.0743H37.1751V31.3061H37.6545H37.661L38.2036 32.0743H38.6612L38.0657 31.2404C38.3725 31.1528 38.5903 30.9349 38.5903 30.574ZM37.1751 30.9633V30.2235H37.7396C38.027 30.2235 38.1972 30.3523 38.1972 30.5882V30.5947C38.1972 30.8176 38.0206 30.9633 37.7435 30.9633H37.1751Z" fill="#0047FF"/>
<path d="M39.9159 29.856L38.9453 32.0742H39.3423L39.5691 31.5418H40.6132L40.8374 32.0742H41.2473L40.2767 29.856H39.9159ZM39.7109 31.2003L40.0899 30.3187L40.4714 31.2003H39.7109Z" fill="#0047FF"/>
<path d="M43.0111 30.9299C43.1748 30.8449 43.3269 30.7031 43.3269 30.4389V30.4324C43.3269 30.2842 43.2766 30.1656 43.1786 30.0677C43.0523 29.9414 42.8538 29.873 42.6012 29.873H41.6113V32.0758H42.6321C43.1245 32.0758 43.448 31.8657 43.448 31.4713V31.4648C43.4493 31.1658 43.2701 31.0176 43.0111 30.9299ZM41.9928 30.2146H42.5509C42.7997 30.2146 42.9389 30.3216 42.9389 30.4943V30.5007C42.9389 30.7018 42.7713 30.7998 42.5226 30.7998H41.9928V30.2146ZM43.0613 31.43C43.0613 31.6285 42.9002 31.7316 42.636 31.7316H41.9928V31.1271H42.6076C42.9131 31.1271 43.0613 31.238 43.0613 31.4236V31.43Z" fill="#0047FF"/>
<path d="M44.3196 29.8716H43.9316V32.0743H44.3196V29.8716Z" fill="#0047FF"/>
<path d="M46.0196 29.856H45.66L44.6895 32.0742H45.0864L45.3133 31.5418H46.3573L46.5816 32.0742H46.9914L46.0196 29.856ZM45.4551 31.2003L45.834 30.3187L46.2155 31.2003H45.4551Z" fill="#0047FF"/>
</svg>
