<svg width="15" height="15" viewBox="0 0 15 15" fill="none" xmlns="http://www.w3.org/2000/svg">
<g clip-path="url(#clip0_2222_12395)">
<path d="M6.87926 1.61147L6.87489 11.2602C6.87489 11.426 6.94074 11.585 7.05795 11.7022C7.17516 11.8194 7.33413 11.8852 7.49989 11.8852C7.66565 11.8852 7.82462 11.8194 7.94183 11.7022C8.05904 11.585 8.12489 11.426 8.12489 11.2602L8.12926 1.6221L9.94926 3.44272C10.0665 3.55989 10.2254 3.62572 10.3911 3.62572C10.5569 3.62572 10.7158 3.55989 10.833 3.44272C10.9502 3.32552 11.016 3.16658 11.016 3.00085C11.016 2.83512 10.9502 2.67618 10.833 2.55897L8.82614 0.5496C8.65201 0.375363 8.44526 0.237144 8.2177 0.142841C7.99013 0.0485381 7.74622 0 7.49989 0C7.25356 0 7.00964 0.0485381 6.78208 0.142841C6.55452 0.237144 6.34776 0.375363 6.17364 0.5496L4.16676 2.5571C4.04959 2.6743 3.98377 2.83325 3.98377 2.99897C3.98377 3.1647 4.04959 3.32364 4.16676 3.44085C4.28397 3.55802 4.44291 3.62384 4.60864 3.62384C4.77437 3.62384 4.93331 3.55802 5.05051 3.44085L6.87926 1.61147Z" fill="#343434"/>
<path d="M13.75 10.625V13.125C13.75 13.2908 13.6841 13.4497 13.5669 13.5669C13.4497 13.6841 13.2908 13.75 13.125 13.75H1.875C1.70924 13.75 1.55026 13.6841 1.43305 13.5669C1.31584 13.4497 1.25 13.2908 1.25 13.125V10.625C1.25 10.4592 1.18415 10.3003 1.06694 10.1831C0.949728 10.0658 0.790757 10 0.624996 10C0.459236 10 0.300265 10.0658 0.183054 10.1831C0.0658442 10.3003 -3.8147e-06 10.4592 -3.8147e-06 10.625L-3.8147e-06 13.125C-3.8147e-06 13.6223 0.19754 14.0992 0.549171 14.4508C0.900802 14.8024 1.37772 15 1.875 15H13.125C13.6223 15 14.0992 14.8024 14.4508 14.4508C14.8025 14.0992 15 13.6223 15 13.125V10.625C15 10.4592 14.9341 10.3003 14.8169 10.1831C14.6997 10.0658 14.5408 10 14.375 10C14.2092 10 14.0503 10.0658 13.9331 10.1831C13.8158 10.3003 13.75 10.4592 13.75 10.625Z" fill="#343434"/>
</g>
<defs>
<clipPath id="clip0_2222_12395">
<rect width="15" height="15" fill="white"/>
</clipPath>
</defs>
</svg>
